<svg fill="none" height="363" viewBox="0 0 440 363" width="440" xmlns="http://www.w3.org/2000/svg" xmlns:xlink="http://www.w3.org/1999/xlink"><clipPath id="a"><path d="m0 0h440v363h-440z"/></clipPath><clipPath id="b"><path d="m212.016 266.197h17.841v24.9775h-17.841z"/></clipPath><g clip-path="url(#a)"><g clip-rule="evenodd" fill-rule="evenodd"><path d="m344.406 283.807c25.353 0 45.9-20.53 45.9-45.877 0-25.349-20.547-45.923-45.9-45.923-25.348 0-45.901 20.574-45.901 45.923 0 25.347 20.553 45.877 45.901 45.877z" fill="#f6b8a8"/><path d="m98.537 166.218c25.352 0 45.9-20.529 45.9-45.878 0-25.3482-20.548-45.9225-45.9-45.9225-25.3486 0-45.9003 20.5743-45.9003 45.9225 0 25.349 20.5517 45.878 45.9003 45.878z" fill="#f6b8a8"/><path d="m112.012 259.605c13.283 0 24.047-10.756 24.047-24.035 0-13.28-10.764-24.06-24.047-24.06-13.28 0-24.0476 10.78-24.0476 24.06 0 13.279 10.7676 24.035 24.0476 24.035z" fill="#f6b8a8"/><path d="m413.641 331.079c-1.576-4.589-5.192-7.691-7.473-11.834-3.477-6.314-1.48-13.562-.325-20.246 2.09-12.09 1.58-24.032-1.14-35.991-4.876-21.429-15.728-40.707-23.643-61.052-1.052-4.767-2.913-9.584-4.933-14.382-.506-1.757-.98-3.526-1.412-5.309-.387-1.603-1.226-2.711-2.283-3.394-.826-1.998-1.608-3.987-2.296-5.959-12.901-36.998-25.802-73.9952-38.703-110.9939-6.562-18.8212-14.119-38.884-33.371-51.28-17.797-11.458673-44.252-13.9362-65.002-6.08614-20.749 7.84884-34.7 25.61144-34.279 43.64394.325 13.8613 8.182 28.5148.505 41.0094-9.455 15.3887-35.548 17.5977-55.316 24.8277-19.215 7.027-34.342 20.596-40.634 36.446-6.2916 15.85-3.6511 33.736 7.093 48.047 7.204 9.596 18.342 19.596 14.381 30.287-2.463 6.65-10.398 11.223-18.632 13.755-8.2356 2.532-17.124 3.526-25.4343 5.904-20.0653 5.743-35.7678 19.994-40.0722 36.371-4.3056 16.377 2.9343 34.322 18.4738 45.796-8.1486-3.515-19.0649 2.803-19.48 10.076-.4151 7.274 6.9401 13.707 15.5193 16.526 8.578 2.818 18.1824 2.801 27.4859 2.739 36.3855-.241 72.9865-.497 108.7755-5.634.324-.047.647-.101.972-.149.706 3.017 4.507 5.272 7.661 4.777 27.425-4.303 55.173-6.333 82.933-6.102 13.167.11 26.308.551 39.462-.277 6.644-.419 12.979-.589 19.551.691 6.208 1.209 12.302 2.297 18.655 2.134 13.183-.34 26.54-2.939 39.591-4.73 10.4-1.428 17.099-8.754 13.37-19.611z" fill="#faeac4"/><path d="m27.7104 172.261c4.1712 13.513 14.6403 25.308 27.6774 31.232 7.3053 3.303 16.0307 5.389 20.3138 12.174 5.57 8.851.27 20.576 4.7814 29.977 5.9886 12.413 25.171 13.613 31.927 25.679 5.54 9.901-.119 21.74 1.756 32.737 1.96 11.496 12.135 22.154 9.696 33.293-1.348 6.079-.543 16.966-.543 16.966-1.791-6.127-10.269-6.462-16.171-9.103-10.8555-4.848-13.6981-18.971-22.1988-27.36-8.126-8.029-21.5032-10.855-26.5023-21.037-6.0933-12.372 4.4317-27.63-2.4323-39.627-5.1822-9.067-18.2514-12.113-22.3322-21.663-3.1508-7.304.3401-15.181 1.9518-22.696 2.8724-13.441-.7589-28.477-9.6342-39.771" fill="#91cdad"/><path d="m259.696 356.071h93.679c13.848-4.149 25.648-9.016 32.389-13.341 15.282-9.804 26.449-25.204 25.092-41.185-1.333-15.683-14.118-29.49-15.527-45.168-1.034-11.493 4.145-22.652 6.995-33.931 2.849-11.279 2.811-24.34-6.661-32.774-10.028-8.928-28.144-9.21-40.546-2.644-12.402 6.565-19.524 18.478-21.998 30.504-2.475 12.026-.88 24.342.719 36.47-2.072-7.96-14.427-11.591-23.729-8.98s-15.857 9.462-21.083 16.355c-14.903 19.66-51.875 72.56-29.33 94.694z" fill="#76c198"/><path d="m338.409 348.073c-2.116-4.396-3.272-8.122-3.274-12.232 0-2.033.285-4.164.887-6.525 1.551-6.103 4.12-12.087 4.126-18.64 0-.443-.012-.889-.037-1.336-.409-7.239-2.87-14.255-2.862-20.672.012-4.95 1.402-9.505 6.3-13.753 3.873-3.349 8.574-6.016 12.375-9.39 3.799-3.366 6.703-7.526 6.787-13.719.002-.121.002-.242.002-.364-.006-4.948-1.439-9.838-1.433-14.591 0-1.405.123-2.797.437-4.177.688-3.014 2.285-5.291 4.386-7.194 2.099-1.901 4.701-3.409 7.335-4.827 12.904-6.945 22.344-17.812 24.738-32.728l-1.027-.166c-2.345 14.555-11.508 25.131-24.205 31.979-2.651 1.428-5.326 2.967-7.539 4.97-2.214 1.999-3.965 4.482-4.703 7.735-.335 1.471-.463 2.942-.463 4.408.007 4.955 1.439 9.846 1.433 14.591 0 .117-.001.233-.002.349-.095 5.859-2.755 9.668-6.438 12.956-3.682 3.277-8.382 5.946-12.363 9.381-5.13 4.416-6.673 9.396-6.661 14.54.009 6.673 2.48 13.686 2.863 20.729.024.428.036.854.036 1.279.006 6.273-2.504 12.176-4.094 18.383-.621 2.43-.918 4.652-.918 6.782-.001 4.313 1.225 8.221 3.376 12.683z" fill="#d6ece0"/><path d="m398.744 188.204c-3.972 6.874-5.824 14.487-5.824 22.143.001 6.001 1.137 12.03 3.281 17.757 1.627 4.334 3.524 8.9 3.518 13.345 0 1.999-.376 3.974-1.324 5.926-2.288 4.737-7.034 7.798-10.802 11.663-4.111 4.223-5.457 8.694-5.45 13.236.008 6.466 2.633 13.107 3.656 19.952.181 1.196.266 2.319.266 3.379-.006 5.355-2.143 9.112-5.316 12.491-3.173 3.372-7.392 6.306-11.421 9.866-4.736 4.199-6.992 10.298-9.443 16.049-2.449 5.765-5.073 11.15-10.332 14.132l.514.905c5.617-3.197 8.315-8.856 10.775-14.629 2.457-5.789 4.696-11.722 9.176-15.677 3.968-3.512 8.205-6.45 11.489-9.932 3.283-3.475 5.605-7.555 5.598-13.205 0-1.115-.089-2.291-.276-3.534-1.061-6.995-3.653-13.614-3.645-19.797.008-4.344 1.232-8.458 5.156-12.512 3.631-3.757 8.511-6.854 10.992-11.932 1.023-2.105 1.429-4.251 1.429-6.381-.006-4.74-1.976-9.399-3.585-13.71-2.102-5.617-3.214-11.523-3.214-17.392 0-7.489 1.809-14.916 5.682-21.622z" fill="#d6ece0"/><path d="m109.619 314.171h217.233v-179.93h-217.233z" fill="#999"/><path d="m346.6 134.241h-256.7292v-44.0544c0-16.8728 13.6772-30.551 30.5502-30.551h195.628c16.873 0 30.551 13.6782 30.551 30.551z" fill="#ccc"/><path d="m330.89 363h-221.381c-9.634 0-17.4448-7.81-17.4448-17.444v-31.385h256.2708v31.385c0 9.634-7.81 17.444-17.445 17.444z" fill="#ccc"/><path d="m250.749 182.551h-58.934c-6.335 0-11.47-5.136-11.47-11.471v-36.839h81.873v36.839c0 6.335-5.135 11.471-11.469 11.471z" fill="#ccc"/><path d="m195.012 187.067h12.278v-6.14h-12.278z" fill="#ccc"/><path d="m227.518 187.067h12.278v-6.14h-12.278z" fill="#ccc"/><path d="m284.923 170.024h93.704v-22.367h-93.704z" fill="#ccc"/><path d="m243.771 164.401h91.841v-11.548h-91.841z" fill="#ccc"/><path d="m265.88 281.538c-5.368 0-9.719-5.163-9.719-11.533 0-6.369 4.351-11.532 9.719-11.532 5.367 0 9.719 5.163 9.719 11.532 0 6.37-4.352 11.533-9.719 11.533zm0-30.927c-9.026 0-16.344 8.684-16.344 19.394 0 10.712 7.318 19.395 16.344 19.395s16.344-8.683 16.344-19.395c0-10.71-7.318-19.394-16.344-19.394z" fill="#f5d589"/><path d="m222.075 313.427h-5.1c-21.661 0-39.222-17.56-39.222-39.222v-24.555h83.544v24.555c0 21.662-17.56 39.222-39.222 39.222z" fill="#f5d589"/></g><g clip-path="url(#b)"><path d="m226.521 274.824c0 2.504-1.693 4.613-4.01 5.287-.652.297-1.199.594-1.489 1.189h-.175c-.289-.591-.829-.886-1.474-1.181-2.329-.663-4.034-2.781-4.034-5.295 0-3.046 2.503-5.515 5.591-5.515s5.591 2.469 5.591 5.515zm3.336.171c0-4.859-3.994-8.798-8.921-8.798-4.926 0-8.92 3.939-8.92 8.798 0 4.406 3.283 8.057 7.569 8.7.726.154 1.31.765 1.146 1.11-.519.705-1.945 2.759-1.945 4.067 0 1.169.804 2.305 2.144 2.305s2.144-1.136 2.144-2.305c0-1.289-1.389-3.305-1.925-4.038-.208-.34.397-.992 1.156-1.141.004-.001.007-.003.012-.003 4.271-.657 7.54-4.299 7.54-8.695z" fill="#ae8e35"/></g><path clip-rule="evenodd" d="m262.218 152.853-81.873 13.365v-31.977h81.873z" fill="#b3b3b3" fill-rule="evenodd"/><path clip-rule="evenodd" d="m346.6 134.241v-.595h-256.1345v-43.4594c0-8.2747 3.3518-15.7596 8.7731-21.1821 5.4234-5.4225 12.9084-8.7742 21.1824-8.7742h195.628c8.275 0 15.76 3.3517 21.182 8.7742s8.774 12.9074 8.774 21.1821v44.0544h.595v-.595.595h.595v-44.0544c0-17.2011-13.944-31.1457-31.146-31.1457h-195.628c-17.202 0-31.1449 13.9446-31.1449 31.1457v44.6494h257.9189v-.595z" fill="#1a1a1a" fill-rule="evenodd"/><path clip-rule="evenodd" d="m326.962 360.251v-.594h-217.453c-4.655-.002-8.863-1.886-11.9141-4.935-3.0508-3.052-4.9348-7.26-4.936-11.915v-28.041h251.1521v28.041c0 4.655-1.884 8.863-4.935 11.915-3.051 3.049-7.259 4.933-11.914 4.935v1.189c9.962-.001 18.038-8.076 18.038-18.039v-29.23h-253.5305v29.23c0 9.963 8.076 18.038 18.0395 18.039h217.453z" fill="#1a1a1a" fill-rule="evenodd"/><path clip-rule="evenodd" d="m95.4541 316.152 60.9979 42.818h50.806l-60.998-42.818z" fill="#f2f3f2" fill-rule="evenodd"/><path clip-rule="evenodd" d="m165.629 316.152 60.901 42.818h25.925l-60.9-42.818z" fill="#f2f3f2" fill-rule="evenodd"/><path clip-rule="evenodd" d="m109.727 108.332c0 4.418 3.582 8 8 8h201.661c4.418 0 8-3.582 8-8v-17.3033c0-4.4182-3.582-8-8-8h-201.661c-4.418 0-8 3.5818-8 8z" fill="#b3b3b3" fill-rule="evenodd"/></g></svg>