<svg fill="none" height="363" viewBox="0 0 440 363" width="440" xmlns="http://www.w3.org/2000/svg" xmlns:xlink="http://www.w3.org/1999/xlink"><clipPath id="a"><path d="m0 0h440v363h-440z"/></clipPath><clipPath id="b"><path d="m203.534 315.374h18.4461v25.5407h-18.4461z"/></clipPath><g clip-path="url(#a)"><g clip-rule="evenodd" fill-rule="evenodd"><path d="m391.524 268.704c-1.605 11.016 2.959 22.41 12.19 30.412 9.398 8.151 23.533 13.203 28.857 23.531 5.798 11.212-1.656 23.943-13.4 32.469h-359.7469c15.655-24.09 10.9669-54.363 13.5678-81.291 2.0574-21.287 7.0038-42.137 14.5723-62.206 1.1366-9.442 6.3427-18.988 12.0879-27.554.2923-.436.5899-.871.8899-1.309.259-.493.508-.993.77-1.485.494-.927 1.114-1.633 1.814-2.15 5.587-7.541 12.458-14.598 22.238-18.141 10.317-3.749 22.028-2.897 33.219-3.595 17.703-1.097 35.087-6.35 49.502-14.957 29.036-17.321 45.021-46.937 76.092-61.6853 24.106-11.4451 55.497-11.7232 79.296-.7038 8.283 3.8368 15.956 9.2911 18.957 16.6398 5.772 14.2273-7.435 30.7003-.81 44.6773 7.929 16.718 37.917 18.525 50.363 33.264 12.005 14.211 2.953 34.094-9.434 48.521-12.404 14.441-28.502 28.249-31.025 45.563z" fill="#faeac4"/><path d="m172.568 233.92c-6.235-8.224-14.055-16.397-25.152-19.512-11.098-3.114-25.836 1.218-28.309 10.713 1.908-14.468 3.811-29.16.858-43.507-2.951-14.347-11.448-28.559-26.2428-36.391-14.7952-7.832-36.4069-7.496-48.3699 3.154-11.3003 10.062-11.3457 25.643-7.946 39.099 3.3998 13.456 9.5778 26.768 8.3448 40.478-1.6815 18.704-16.9335 35.176-18.5241 53.885-1.619 19.064 11.7033 37.437 29.9351 49.133 26.0387 16.705 115.3309 40.214 146.1599 19.37 35.315-23.877-12.145-91.873-30.754-116.422z" fill="#76c198"/><path d="m314.117 304.157.528-.936c.226-.325.452-.649.677-.974zm23.434-37.55c-.044.224-.074.395-.094.539l-.234.325zm-48.241-18.017c6.547 24.464 12.017 51.537 7.746 76.4-.445.638-.891 1.278-1.336 1.918-3.043 4.368-6.491 9.318-5.758 14.878l1.965-.259c-.541-4.107 1.637-7.936 4.142-11.632-1.188 5.21-2.831 10.309-5.032 15.245l13.073-23.212c18.227-16.46 37.359-16.386 61.246-13.791 11.975 1.316 26.509 1.614 32.973-10.297 1.218-2.218 2.039-4.987 1.382-7.55-.901-3.498-4.096-5.311-7.001-6.5-23.429-9.765-47.975-6.774-69.548 7.211 1.89-2.715 3.785-5.429 5.675-8.143 3.873-5.56 7.783-11.163 11.822-16.766 22.223-12.47 50.722.228 74.634-9.002-11.235-12.221-33.017-24.261-50.059-17.852-1.306.488-4.465 2.583-8.183 5.435 3.382-4.107 6.899-8.183 10.617-12.207l19.578-15.848c5.714-5.486 12.834-8.512 18.815-13.581 6.658-5.637 11.77-13.746 14.422-22.928 1.098-3.817 1.111-9.314-2.14-10.52-1.939-.735-3.941.628-5.61 1.955-19.757 15.695-35.541 37.551-48.222 61.455-5.335 5.885-10.288 11.865-14.976 17.89l-.325.292c2.482-8.147 1.248-17.478-1.123-25.767-1.72-6.015-4.276-11.809-7.664-17.073-1.629-2.534-3.452-4.946-5.467-7.185-.708-.786-6.18-5.117-6.123-5.761-2.185 25.034 11.577 49.847 7.047 73.969-2.933 4.132-5.812 8.258-8.67 12.36-3.573 5.129-7.151 10.26-10.727 15.392 6.748-30.586 2.646-63.935-11.242-90.121-1.781-3.356-4.175-6.925-7.575-7.074-2.493-.11-4.834 1.713-6.59 3.863-9.391 11.535-5.732 29.923-1.766 44.806z" fill="#76c198"/><path d="m5.23513 115.928c5.23157 16.539 17.73947 30.376 33.12917 36.669h.0014c4.2936 1.751 8.9364 3.079 13.0953 4.951 4.1645 1.871 7.8182 4.262 10.2545 8.105l.0029.004-.0014-.003c3.2011 4.998 3.4494 11.193 3.5146 17.627.0752 6.423-.034 13.062 2.7854 18.874 1.8659 3.838 4.6995 6.703 7.9758 9.045 4.9194 3.514 10.8463 5.896 16.2566 8.735 5.4161 2.84 10.2816 6.109 13.2086 11.291 2.448 4.315 3.12 9.121 3.12 14.212.002 5.857-.896 12.056-.898 18.179 0 2.572.159 5.132.62 7.648 1.187 6.493 4.321 12.536 7.119 18.48 2.805 5.944 5.264 11.771 5.259 17.769 0 1.245-.105 2.499-.334 3.766-.462 2.583-1.422 5.342-2.277 8.102-.853 2.761-1.609 5.523-1.612 8.173-.004 2.258.575 4.459 2.141 6.358l.548-.449.443-.555c-.009-.006-2.566-2.042-5.994-4.429-3.432-2.386-7.719-5.122-11.271-6.545l.002.001c-6.0618-2.435-10.0575-7.842-13.785-13.962-3.7304-6.107-7.1614-12.875-12.2837-17.823-4.9095-4.729-11.2337-7.648-17.0186-10.897-5.7963-3.25-11.0166-6.797-13.9254-12.645-1.8758-3.768-2.4788-7.896-2.4788-12.232-.0057-7.38 1.7651-15.309 1.7708-22.846 0-4.798-.7279-9.463-3.1628-13.687-3.2394-5.581-8.6938-8.979-13.8573-12.414-5.1819-3.436-10.0559-6.891-12.4369-12.376v.001c-1.1436-2.639-1.5778-5.402-1.5778-8.261-.0071-6.283 2.127-13.002 3.2805-19.539l.0015-.001c.5874-3.387.8754-6.829.8754-10.274-.0014-13.89-4.6668-27.851-13.19882-38.561l-1.1096.885c8.31632 10.434 12.89092 24.102 12.88952 37.676 0 3.367-.2809 6.727-.8556 10.031v-.001c-1.1195 6.411-3.2962 13.189-3.3018 19.784-.0015 3.001.4569 5.972 1.6956 8.826 2.598 5.954 7.7729 9.546 12.9534 12.991 5.1989 3.444 10.4206 6.757 13.4131 11.944v-.002c2.2646 3.931 2.9712 8.317 2.9726 12.978.0043 7.319-1.7665 15.249-1.7708 22.846 0 4.462.6187 8.83 2.6279 12.865 3.1259 6.269 8.6583 9.97 14.5014 13.249 5.8545 3.279 12.0567 6.169 16.7278 10.68 4.8896 4.709 8.2964 11.367 12.0566 17.542 3.763 6.161 7.9091 11.891 14.4658 14.539l.002.001c3.345 1.334 7.602 4.034 10.988 6.392 1.694 1.179 3.177 2.275 4.234 3.074.528.4.951.725 1.24.95.289.226.444.349.446.349l5.25 4.181-4.26-5.185c-1.328-1.622-1.815-3.427-1.819-5.459-.003-2.374.702-5.027 1.548-7.754.844-2.729 1.825-5.531 2.318-8.268.246-1.355.357-2.695.357-4.019-.005-6.393-2.584-12.403-5.395-18.375-2.818-5.972-5.879-11.92-7.007-18.128-.44-2.407-.597-4.88-.596-7.394-.003-5.984.896-12.182.898-18.179 0-5.208-.684-10.292-3.304-14.912-4.205-7.412-11.9278-10.999-19.3502-14.613-3.7176-1.805-7.377-3.614-10.5242-5.866-3.15-2.255-5.785-4.937-7.5246-8.512-2.6335-5.392-2.5796-11.817-2.6434-18.269-.0766-6.441-.271-12.931-3.7389-18.375l.0014.001c-2.6449-4.171-6.5866-6.714-10.8704-8.638-4.288-1.926-8.9463-3.257-13.1421-4.969h.0014c-14.9668-6.112-27.2164-19.645-32.31463-35.784z" fill="#5f99d2"/><path d="m3.2969 194.345c7.0421 11.76 19.208 20.12 32.1671 22.139 7.2493 1.126 15.4592.699 20.8965 5.995 7.1216 6.894 5.3849 19.58 11.7005 27.289 8.3561 10.208 25.5421 6.025 34.494 15.672 7.373 7.926 5.332 20.813 9.723 30.794 4.58 10.436 16.201 17.782 16.822 29.111.342 6.159-2.247 13.831 2.604 17.516 0 0-9.43-4.427-15.309-5.298-10.759-1.621-16.7926-14.323-26.3718-19.987-9.1649-5.419-21.6458-4.409-28.5829-12.721-8.454-10.134-2.9883-27.642-12.0112-37.21-6.8421-7.225-19.1016-6.497-25.0909-14.479-4.5888-6.129-3.4764-14.619-3.9305-22.255-.8385-13.639-7.7842-26.991-18.4077-35.315" fill="#ee7152"/><path d="m112.059 357.97h201.153v-262.8039h-201.153z" fill="#ccc"/><path d="m139.254 323.989h139.367v-207.116h-139.367z" fill="#b3b3b3"/><path d="m278.621 323.989v-.709h-138.657v-205.698h137.948v206.407h.709v-.709.709h.71v-207.826h-140.786v208.536h140.786v-.71z" fill="#666"/><path d="m231.136 176.444h-.71c0 5.936-2.403 11.304-6.293 15.195-3.89 3.889-9.258 6.293-15.195 6.293-5.935 0-11.303-2.404-15.194-6.293-3.889-3.891-6.293-9.259-6.294-15.195.001-5.936 2.405-11.304 6.294-15.194 3.891-3.889 9.259-6.293 15.194-6.295 5.937.002 11.305 2.406 15.195 6.295 3.89 3.89 6.293 9.258 6.293 15.194h1.419c0-12.651-10.254-22.906-22.907-22.908-12.651.002-22.906 10.257-22.907 22.908.001 12.652 10.256 22.907 22.907 22.907 12.653 0 22.907-10.255 22.907-22.907z" fill="#666"/><path d="m228.065 176.444c0 10.564-8.563 19.127-19.127 19.127-10.563 0-19.126-8.563-19.126-19.127 0-10.563 8.563-19.126 19.126-19.126 10.564 0 19.127 8.563 19.127 19.126z" fill="#808080"/><path d="m174.454 242.624h73.007v-26.284h-73.007z" fill="#808080"/><path d="m247.461 242.624v-.71h-72.298v-24.865h71.588v25.575h.71v-.71.71h.709v-26.994h-74.426v27.703h74.426v-.709z" fill="#666"/><path d="m174.911 243.167 12.087-10.159h49.64l10.326 10.122.993-1.013-10.738-10.528h-50.737l-12.485 10.491z" fill="#666"/><path d="m186.031 232.298h1.419v-15.958h-1.419z" fill="#666"/><path d="m236.22 232.298h1.419v-15.958h-1.419z" fill="#666"/><path d="m215.872 237.284c-.079-.79-.213-1.448-.695-2.034-.412-.498-1.087-.874-1.677-.842-.615.033-1.25.277-1.677.842-.396.523-.769 1.297-.696 2.034.084.83.105 1.661.063 2.495-.075 1.505 1.145 2.944 2.372 2.877 1.35-.073 2.292-1.265 2.373-2.877.041-.834.02-1.665-.063-2.495z" fill="#733724"/><path d="m227.598 246.222c-.014-.383-.108-.739-.281-1.07-.149-.336-.353-.604-.611-.807-.229-.254-.498-.426-.806-.515-.21-.034-.422-.068-.632-.104-.427.002-.827.134-1.196.393-.16.151-.321.301-.481.45-.294.359-.497.783-.61 1.27l-.089.542c-.098.382-.113.765-.043 1.148.016.382.109.739.282 1.07.149.335.352.604.61.807.23.254.499.426.808.515.21.034.42.069.63.103.428-.002.827-.132 1.197-.393.161-.151.321-.3.48-.45.295-.359.498-.782.61-1.27l.09-.542c.099-.382.113-.765.042-1.147z" fill="#733724"/><path d="m215.983 256.738c-.308-.606-.616-1.213-.924-1.819-.318-.626-.829-1.125-1.417-1.323-.568-.19-1.324-.103-1.828.29-1.06.829-1.548 2.567-.851 3.937.308.606.615 1.214.923 1.819.318.625.829 1.126 1.418 1.323.567.189 1.324.104 1.827-.291 1.06-.829 1.548-2.565.852-3.936z" fill="#733724"/><path d="m207.048 243.62c-.014-.383-.108-.739-.281-1.07-.149-.335-.354-.604-.61-.807-.23-.254-.498-.426-.808-.515-.21-.034-.42-.068-.63-.103-.428.002-.828.132-1.197.392-.161.151-.321.301-.481.451-.294.359-.497.782-.61 1.269-.03.217-.062.434-.093.65-.098.383-.112.765-.041 1.148.014.383.108.739.281 1.07.149.334.353.604.612.807.228.254.498.426.806.515.21.034.42.068.631.102.427-.001.827-.132 1.196-.393.161-.149.321-.299.481-.45.294-.359.497-.782.61-1.27.03-.215.061-.432.093-.648.097-.383.112-.765.041-1.148z" fill="#733724"/><path d="m222.367 269.457c-.094-.67-.625-1.389-1.09-1.72-.508-.36-1.259-.513-1.828-.289-.574.226-1.128.657-1.417 1.322-.275.632-.331 1.245-.267 1.924l-.001.003-.037-.336c.014.143.021.285.021.426l-.064.147c-.654 1.283-.262 3.224.852 3.938 1.159.743 2.548.336 3.245-1.033.688-1.351.801-2.851.586-4.382z" fill="#733724"/><path d="m210.68 267.13c.117-.743.076-1.486-.247-2.155-.288-.598-.852-1.167-1.417-1.323-.607-.167-1.29-.132-1.829.29-.498.391-.968.989-1.09 1.72-.13.781-.218 1.593-.166 2.39.051.774.231 1.473.695 2.035.412.5 1.087.876 1.678.843.613-.033 1.25-.277 1.677-.843.407-.536.745-1.28.695-2.035-.021-.309-.014-.615.004-.922z" fill="#733724"/><path d="m216.035 283.322-.089-.435c-.072-.373-.214-.699-.424-.977-.168-.314-.389-.561-.666-.742-.272-.21-.566-.324-.881-.341-.316-.086-.631-.068-.946.051l-.566.29c-.358.256-.642.6-.852 1.033-.079.228-.16.458-.24.686-.112.511-.112 1.021 0 1.531l.09.433c.074.375.215.701.424.979.168.312.39.561.666.741.272.21.567.323.882.342.315.085.63.068.947-.053.188-.096.377-.193.566-.289.356-.256.64-.6.851-1.033.08-.229.159-.458.238-.687.114-.509.114-1.02 0-1.529z" fill="#733724"/><path d="m221.25 253.368c-3.052 0-3.058 5.755 0 5.755 3.053 0 3.058-5.755 0-5.755z" fill="#733724"/><path d="m265.542 92.3623h-153.972v-62.3846c0-16.5561 13.421-29.9777 29.977-29.9777h133.868c16.556 0 29.977 13.4216 29.977 29.9777v43.8619c-7.416 1.4558-14.592 3.7587-21.216 6.9031-6.844 3.2493-12.954 7.218-18.634 11.6196z" fill="#cfe0f2"/><path d="m305.392 92.3623h-39.85c5.679-4.4015 11.789-8.3703 18.634-11.6196 6.624-3.1444 13.799-5.4473 21.216-6.9031z" fill="#fcf2dc"/><path d="m121.569 91.5066h172.669v-45.3262h-172.669z" fill="#733724"/><path d="m308.677 353.503v-.709h-198.768v-259.7222h198.059v260.4312h.709v-.709.709h.71v-261.8502h-200.897v262.5602h200.897v-.71z" fill="#1a1a1a"/><path d="m257.705 332.126c-5.196 0-9.409-4.999-9.409-11.166 0-6.168 4.213-11.167 9.409-11.167 5.198 0 9.411 4.999 9.411 11.167 0 6.167-4.213 11.166-9.411 11.166zm0-29.944c-8.739 0-15.824 8.407-15.824 18.778 0 10.37 7.085 18.777 15.824 18.777 8.741 0 15.826-8.407 15.826-18.777 0-10.371-7.085-18.778-15.826-18.778z" fill="#fff"/><path d="m212.826 363c-22.337 0-40.444-18.107-40.444-40.444v-21.305h80.887v21.305c0 22.337-18.108 40.444-40.443 40.444z" fill="#fff"/></g><g clip-path="url(#b)"><path d="m218.532 324.195c0 2.561-1.751 4.717-4.146 5.407-.674.303-1.24.607-1.539 1.215h-.182c-.298-.604-.857-.906-1.523-1.208-2.409-.678-4.172-2.844-4.172-5.414 0-3.114 2.588-5.639 5.781-5.639s5.781 2.525 5.781 5.639zm3.448.175c0-4.968-4.129-8.996-9.223-8.996-5.093 0-9.223 4.028-9.223 8.996 0 4.506 3.396 8.238 7.826 8.896.751.158 1.355.783 1.185 1.135-.536.721-2.011 2.822-2.011 4.159 0 1.196.831 2.358 2.217 2.358s2.217-1.162 2.217-2.358c0-1.318-1.436-3.379-1.99-4.129-.216-.348.41-1.015 1.194-1.167.005-.001.008-.003.013-.003 4.416-.672 7.795-4.396 7.795-8.891z" fill="#000"/></g></g></svg>