<svg fill="none" height="363" viewBox="0 0 440 363" width="440" xmlns="http://www.w3.org/2000/svg" xmlns:xlink="http://www.w3.org/1999/xlink"><clipPath id="a"><path d="m303.381 266.082h26.3291v37.8316h-26.3291z"/></clipPath><path clip-rule="evenodd" d="m35.364 362.438h175.118c11.248-.49 22.487-.626 33.64 0h6.783c-7.559-5.693-17.694-14.219-28.048-23.098 8.902 3.186 18.114 4.429 27.02 1.703 17.439-5.379 27.462-24.027 33.542-41.817 5.705-16.725 9.537-34.186 11.385-51.9.346-3.358.743-6.999 3.056-9.343 2.086-2.134 5.209-2.637 8.083-3.208 31.581-6.202 58.098-33.529 64.298-66.228l-4.934-34.533c5.603 1.657 11.619.797 17.213-.822 18.699-5.446 34.701-19.845 42.559-38.2614 7.829-18.4277 7.354-40.5075-1.285-58.7083-7.889-16.6711-26.285-30.67631-42.974-24.3446-12.293 4.6483-18.909 18.1504-28.878 26.8756-9.791 8.5726-23.255 12.415-35.979 10.2801-19.994-3.3595-35.195-19.7544-51.314-32.5907-16.111-12.81729-38.729-22.67367-55.886-11.7227-17.788 11.3507-21.477 40.4609-41.33 47.3122-16.586 5.7188-35.031-8.0039-51.877-3.1224-8.687 2.5334-15.438 9.724-20.3398 17.5917-14.0635 22.6005-41.3291 72.8485-29.308 96.9245 8.8704 17.768 13.6284 37.35 16.9195 56.548 3.6686 21.396 4.6866 47.973-6.0519 67.898-5.0577 9.386-12.7621 17.329-19.8571 25.55-6.7026 7.767-16.1071 18.765-21.8143 27.163-3.3049 4.86-6.5471 10.615-4.5837 16.044.8538 2.362 2.6354 4.317 4.8433 5.809z" fill="#faeac4" fill-rule="evenodd"/><path clip-rule="evenodd" d="m102.03 330.274c.209.137.417.274.625.41l.528.425zm-20.9513-15.232-.2131-.136c-.0452-.079-.1028-.173-.1818-.294zm11.9572-48.285c-1.5296-.847-3.325-1.362-4.753-.709-1.9484.891-2.5063 3.551-2.7571 5.942-1.9483 18.651 3.4955 39.192 14.6212 55.547-3.2921-2.167-6.5858-4.332-9.8757-6.497-2.6316-1.733-5.2821-3.473-7.9626-5.205-8.3137-13.086-6.1159-30.9-13.2749-45.076.1843.366-1.9897 4.201-2.2179 4.829-.6494 1.79-1.1459 3.637-1.502 5.508-.7385 3.892-.8689 7.895-.4589 11.832.5655 5.424 2.0386 11.193 5.4012 15.388l-.2582-.095c-4.1513-2.429-8.4467-4.767-12.9427-6.96-13.0178-11.03-27.3634-20.125-42.5803-24.665-1.2851-.384-2.7746-.711-3.7337.178-1.61239 1.477-.3135 4.699 1.2249 6.68 3.7049 4.761 8.5933 8.312 13.8039 10.046 4.6803 1.561 9.5462 1.654 14.1701 3.523l15.148 4.672c3.1143 1.483 6.1246 3.044 9.0634 4.655-2.8397-.796-5.1755-1.278-6.0519-1.255-11.4494.267-21.329 12.482-25.0126 22.309 16.1222-.236 29.7656-14.425 45.6634-12.359 3.6723 2.333 7.2706 4.697 10.8375 7.044 1.7403 1.146 3.4842 2.291 5.2257 3.438-15.8739-3.108-30.9003.939-42.2757 12.209-1.4155 1.383-2.8536 3.203-2.5564 5.469.2181 1.66 1.349 3.091 2.5802 4.105 6.571 5.46 14.9813 1.85 21.6601-1.753 13.3275-7.169 24.4735-11.735 38.9771-6.385l13.083 10.533c-2.445-2.376-4.601-4.98-6.52-7.758 2.33 1.577 4.501 3.309 5.151 5.848l1.208-.312c-.88-3.437-4.055-5.526-6.856-7.371-.412-.27-.822-.54-1.232-.81-8.335-13.58-11.505-30.762-13.436-46.667-1.184-9.673-3.37-21.329-11.5611-25.878z" fill="#76c198" fill-rule="evenodd"/><g fill="#f18d75"><path d="m31.1269 259.107c.1223-.012.2496-.027.3808-.043.8617-.109 1.9573-.311 3.0588-.534.9611-.194 1.9363-.406 2.7767-.589.1247-.027.2464-.054.3647-.08.9322-.202 1.6176-.347 1.8845-.38h.0001c3.3386-.41 6.6937-.691 10.0551-.848 11.9256-.554 23.9237.479 35.5817 3.071.7181.159 1.5704.311 2.4833.473.3764.067.763.136 1.1547.208 1.3538.248 2.7905.538 4.161.929 2.7817.795 5.1196 1.965 6.0348 3.879.5416 1.133.5683 2.093.2927 2.921-.2807.844-.8935 1.605-1.7257 2.288-1.6726 1.371-4.0951 2.314-5.9077 2.911h-.0001c-20.7167 6.829-44.9994 1.09-60.5954-14.206z" stroke="#f18d75"/><path clip-rule="evenodd" d="m29.8524 258.536-.4488.441c11.4895 11.806 27.9075 18.312 44.2729 18.313 6.23 0 12.4549-.943 18.3965-2.903 1.571-.518 3.6497-1.303 5.3849-2.459.8676-.579 1.6538-1.253 2.238-2.059.5831-.804.9601-1.756.9581-2.814.001-.747-.186-1.537-.574-2.352-.5797-1.21-1.5739-2.127-2.7537-2.838-1.7728-1.067-3.992-1.703-6.146-2.174-2.1502-.468-4.244-.766-5.7084-1.091-9.6978-2.156-19.6302-3.243-29.5625-3.243-2.1051 0-4.2114.049-6.3139.147-3.389.158-6.7729.441-10.1405.855-.3185.04-.8814.159-1.6387.322-1.1271.243-2.6391.58-4.0459.855-1.3979.276-2.7232.485-3.3513.481-.1216 0-.2131-.008-.2482-.016l-.0013.008.0025-.005-.0012-.003-.0013.008.0025-.005-.1504.365.2783-.275-.1279-.09-.1504.365.2783-.275-.8964.883.4488-.441-.4488.441c.2068.197.3799.227.5341.264.1567.029.3109.037.4814.037.5642-.001 1.3252-.103 2.2079-.25 1.319-.222 2.8824-.557 4.2164-.845.6658-.145 1.2738-.278 1.7603-.381.4827-.102.8601-.174 1.003-.192 3.3363-.409 6.6888-.69 10.0464-.846 2.0838-.097 4.17-.146 6.2563-.146 9.8421 0 19.6829 1.077 29.293 3.213 2.0536.455 5.0639.828 7.7921 1.609 1.3616.388 2.6467.878 3.6874 1.507 1.0431.629 1.8292 1.384 2.2668 2.304.3209.672.4513 1.266.4513 1.804-.0012.758-.257 1.43-.7184 2.072-.6896.959-1.8618 1.805-3.157 2.483-1.2939.681-2.7006 1.203-3.8415 1.579-5.8087 1.916-11.902 2.84-18.0066 2.84-16.0381.003-32.149-6.39-43.3765-17.935l-.8964.883z" fill-rule="evenodd"/><path d="m87.769 291.676h.0001l13.6429 8.535-.074-.495c-5.1825.775-10.4238 1.151-15.6637 1.121-1.1045-.007-2.2567-.08-3.2688-.369-1.0076-.288-1.8331-.776-2.3499-1.584-.5227-.818-.5882-1.831-.2936-2.828.2953-1 .9423-1.941 1.7708-2.566h.0001c1.7024-1.285 3.9533-1.623 6.2361-1.814z" stroke="#f18d75"/><path clip-rule="evenodd" d="m87.7275 291.178-.0526-.628c-2.2994.197-4.8107.528-6.8205 2.037-1.423 1.084-2.3847 2.842-2.3935 4.628-.0012.784.1969 1.577.6457 2.278.7122 1.114 1.8243 1.732 2.9903 2.062 1.1722.333 2.4285.404 3.5707.412.2006 0 .4012.002.6018.002 5.0966 0 10.1944-.381 15.2346-1.135 1.231-.184 4.759-.493 8.093-1.102 1.672-.307 3.301-.686 4.615-1.182.657-.25 1.238-.526 1.714-.859.473-.331.864-.726 1.057-1.252.079-.217.121-.444.12-.67.001-.363-.113-.712-.298-1.008-.354-.559-.918-.963-1.621-1.322-1.233-.622-2.947-1.093-4.955-1.481-6.013-1.152-14.6454-1.486-19.446-1.488-1.4256 0-2.5038.029-3.1081.08l.104 1.256c.5266-.044 1.5998-.074 3.0041-.074 3.854 0 10.265.223 15.676.913 2.703.344 5.162.808 6.892 1.399.865.293 1.544.622 1.961.944.209.158.351.312.431.441.08.132.105.232.106.34l-.045.241c-.056.164-.239.401-.593.646-.612.431-1.672.847-2.925 1.188-1.883.517-4.206.893-6.26 1.166-2.058.275-3.835.447-4.706.577-4.9804.745-10.0155 1.121-15.0506 1.121-.1981 0-.3962-.002-.5943-.002-1.092-.006-2.2492-.082-3.236-.364-.9917-.285-1.7803-.753-2.278-1.531-.306-.48-.4451-1.02-.4464-1.596-.01-1.308.7748-2.785 1.8932-3.62 1.6487-1.253 3.9117-1.604 6.171-1.789z" fill-rule="evenodd"/><path clip-rule="evenodd" d="m113.203 213.39c.678-1.586 1.423-3.211 2.705-4.357 1.284-1.147 3.255-1.696 4.753-.851 1.766.995 2.153 3.342 2.299 5.372.366 5.097.44 10.216.223 15.322-.306 7.194-1.349 14.765-5.75 20.445-3.316 4.28-9.487 8.715-14.738 9.946-1.6-14.507 4.895-32.748 10.508-45.877z" fill-rule="evenodd"/><path clip-rule="evenodd" d="m113.203 213.39.575.25c.672-1.58 1.393-3.111 2.546-4.136.745-.669 1.781-1.106 2.715-1.101.473 0 .916.104 1.315.329.71.399 1.164 1.077 1.472 1.956.305.874.438 1.919.508 2.911.228 3.185.343 6.378.343 9.571 0 1.894-.041 3.786-.121 5.679-.3 7.158-1.353 14.593-5.618 20.085-3.208 4.159-9.341 8.553-14.385 9.719l.142.614.623-.069c-.164-1.497-.242-3.038-.242-4.612-.008-13.425 5.688-29.23 10.702-40.946l-.575-.25-.576-.248c-5.034 11.784-10.799 27.673-10.805 41.444 0 1.616.079 3.202.25 4.751l.079.704.687-.16c5.456-1.295 11.663-5.773 15.089-10.171 4.537-5.868 5.57-13.576 5.881-20.806.082-1.911.123-3.823.123-5.734 0-3.224-.115-6.447-.346-9.661-.076-1.038-.209-2.182-.575-3.238-.364-1.05-.986-2.044-2.043-2.64-.605-.341-1.271-.491-1.928-.489-1.305.003-2.584.563-3.547 1.42-1.413 1.268-2.18 2.986-2.865 4.58z" fill-rule="evenodd"/><path d="m142.021 273.561c-3.789 2.937-7.579 5.875-11.368 8.813-.642.498-1.385 1.167-2.171 1.875l-.082.073c-.822.741-1.698 1.527-2.591 2.241-.895.716-1.791 1.347-2.649 1.783-.698.354-1.342.565-1.922.606-.207-1.979.168-4.253.958-6.677.845-2.594 2.153-5.324 3.676-7.994 3.045-5.339 6.922-10.388 9.577-13.538l.001-.001c1.572-1.874 3.239-3.641 5.318-4.721 2.077-1.077 4.615-1.349 6.573-.28 1.532.836 2.482 2.37 2.861 4.154.38 1.786.175 3.779-.562 5.451-1.5 3.402-4.555 5.839-7.619 8.215zm0 0 .307.395m-.307-.395.307.395m0 0c3.046-2.362 6.211-4.872 7.769-8.409l-29.299 23.903c2.449.185 5.533-2.592 8.01-4.822.793-.714 1.524-1.372 2.152-1.859 3.789-2.938 7.579-5.876 11.368-8.813z" stroke="#f18d75"/><path clip-rule="evenodd" d="m135.067 260.421.48.407c1.561-1.865 3.233-3.63 5.279-4.69 1.141-.594 2.45-.945 3.707-.944.974 0 1.915.208 2.75.663.996.545 1.732 1.382 2.231 2.404.498 1.02.747 2.223.747 3.447 0 1.234-.253 2.486-.737 3.584-1.467 3.345-4.531 5.808-7.579 8.164-3.789 2.937-7.579 5.876-11.368 8.814-1.315 1.023-2.982 2.685-4.718 4.087-.865.7-1.742 1.33-2.572 1.776-.83.447-1.608.698-2.253.696l-.188-.008-.048.629.621-.095c-.074-.486-.109-.993-.109-1.519-.012-4.155 2.274-9.472 5.223-14.438 2.942-4.971 6.522-9.615 9.013-12.568l.004-.007-.003.005-.48-.407-.478-.407c-2.526 2.996-6.138 7.681-9.135 12.74-2.99 5.066-5.388 10.482-5.398 15.082 0 .584.039 1.154.123 1.709l.075.496.498.037.282.012c.956-.004 1.907-.345 2.843-.845 1.404-.756 2.799-1.894 4.09-3.023 1.286-1.129 2.47-2.252 3.375-2.953 3.79-2.939 7.579-5.877 11.369-8.814 3.044-2.367 6.309-4.924 7.959-8.652.561-1.272.845-2.688.845-4.095 0-1.394-.281-2.78-.875-4.002-.593-1.219-1.509-2.276-2.759-2.957-1.044-.57-2.197-.817-3.348-.816-1.488 0-2.976.407-4.283 1.084-2.3 1.198-4.07 3.101-5.662 4.998l.001-.001z" fill-rule="evenodd"/><path d="m84.6477 195.232c2.9574 11.177 4.9528 22.569 6.1074 34.071m-6.1074-34.071 5.6099 34.12m-5.6099-34.12c-.0369-.14-.0739-.279-.111-.419-.9589-3.615-1.9136-7.214-1.2819-10.739m1.3929 11.158-1.3929-11.158m7.5003 45.229-.4975.049m.4975-.049c0-.001 0-.001 0-.001l-.4975.05m.4975-.049c.0202.2.0404.409.0612.626.0737.766.156 1.62.2765 2.468.1552 1.092.368 2.127.6861 2.902.3303.804.6992 1.152 1.0659 1.205.389.056 1.0636-.169 2.1225-1.271 1.5445-1.608 2.2635-4.126 2.58-6.87.256-2.221.2421-4.512.2302-6.478-.0027-.456-.0054-.894-.0046-1.31v-.001c.0107-4.88.021-9.76.0314-14.641v-.002c.0103-4.88.0207-9.76.0313-14.639m-7.578 38.06c.0198.197.0397.403.0604.618.3573 3.713.9471 9.839 5.0099 5.61 3.0143-3.139 2.9765-9.323 2.9496-13.711-.0027-.452-.0054-.885-.0046-1.293.0107-4.881.021-9.761.0314-14.642.0103-4.88.0207-9.761.0313-14.641m-.5-.001.5.001m-.5-.001.5.001m-.5-.001c.0063-3.117-.0098-6.208-1.12-8.977h-.0001c-1.1084-2.766-3.5588-5.09-6.3694-5.179l6.8336 4.993c1.1522 2.874 1.1622 6.064 1.1559 9.164m-15.0808-7.219c.3221-1.801 1.2191-3.577 2.4843-4.882m-2.4843 4.882 2.4843-4.882m0 0c1.2636-1.303 2.8651-2.11 4.6068-2.056z" stroke="#f18d75"/><path clip-rule="evenodd" d="m84.1642 195.36.6068-.162c-.7761-2.926-1.5948-5.879-1.5923-8.747 0-.791.0614-1.576.2006-2.354.3097-1.739 1.1785-3.478 2.3897-4.752 1.2161-1.277 2.7445-2.08 4.4082-2.08l.1642.002c1.3729.043 2.6555.627 3.7463 1.555 1.0895.927 1.9722 2.197 2.51 3.542 1.0256 2.549 1.1134 5.436 1.1121 8.337 0 .197-.0012.394-.0012.59-.0213 9.761-.0414 19.521-.0627 29.283v.167c0 .756.01 1.584.01 2.452 0 2.105-.0602 4.461-.4463 6.607-.3849 2.149-1.1021 4.066-2.3333 5.342-.4589.478-.8576.799-1.1823.99-.326.192-.5667.25-.7334.25-.1442-.003-.247-.036-.3686-.114-.2107-.131-.4602-.459-.6683-.953-.3172-.737-.5429-1.796-.6983-2.887-.158-1.093-.2521-2.221-.3436-3.139-1.156-11.507-3.1519-22.907-6.1108-34.091l-.6068.162-.6056.162c2.9413 11.115 4.926 22.448 6.0757 33.894.1392 1.378.2846 3.314.6771 4.954.1993.824.4551 1.578.8513 2.184.1993.302.44.57.7434.77.301.2.6696.32 1.0545.319.4526-.002.9077-.153 1.3678-.423.4602-.272.9353-.667 1.4494-1.202 1.492-1.558 2.253-3.717 2.6642-5.993.41-2.28.4664-4.702.4677-6.832 0-.878-.01-1.707-.01-2.452v-.164c.0213-9.761.0413-19.523.0626-29.283 0-.197.0013-.395.0013-.593-.0025-2.922-.069-5.972-1.2024-8.808-.6143-1.53-1.601-2.957-2.8623-4.033-1.26-1.074-2.8109-1.8-4.5186-1.853l-.2031-.003c-2.08.001-3.9255 1.006-5.3147 2.471-1.3917 1.469-2.3583 3.406-2.7169 5.399-.1542.86-.2207 1.721-.2207 2.577.0025 3.108.8651 6.157 1.6337 9.071z" fill-rule="evenodd"/><path clip-rule="evenodd" d="m34.1403 165.697c.0012 0 .247.248.7259.752 7.1866 7.55 66.0558 71.713 101.1968 182.563l1.194-.383c-37.5737-118.514-102.1839-183.777-102.2278-183.822z" fill-rule="evenodd"/><path clip-rule="evenodd" d="m16.8671 150.02s24.1914 54.844 49.871 68.828c25.6783 13.984 11.7001-50.471-49.871-68.828z" fill-rule="evenodd"/><path clip-rule="evenodd" d="m16.8671 150.02-.5729.254c.0075.016 6.0619 13.745 15.3423 29.24 9.2917 15.496 21.7528 32.763 34.8033 39.887 2.5388 1.381 4.7367 2.043 6.6186 2.046 2.1176.011 3.8378-.89 4.9223-2.462 1.0908-1.565 1.596-3.724 1.5973-6.304-.0025-4.074-1.2701-9.242-3.8152-14.933-7.6367-17.056-26.8444-38.825-58.7164-48.334l-1.3026-.388.5504 1.248.5729-.254-.178.604c20.9968 6.26 36.4156 17.909 46.5837 29.943 5.084 6.016 8.8528 12.128 11.3465 17.699 2.495 5.569 3.7074 10.603 3.7049 14.415.0025 2.418-.489 4.326-1.3691 5.579-.8864 1.247-2.1113 1.914-3.8967 1.926-1.5823.002-3.6033-.574-6.0218-1.893-12.6305-6.859-25.1029-24.007-34.3269-39.429-4.6176-7.71-8.4366-14.99-11.1008-20.34-1.3315-2.673-2.3746-4.866-3.0843-6.388-.3548-.762-.6256-1.356-.8087-1.758-.183-.404-.2745-.614-.2758-.614l-.573.256-.178.604z" fill-rule="evenodd"/><path d="m15.6195 205.229c13.4108 8.961 27.9985 16.141 43.2632 21.293 2.1178.715 4.2419 1.389 6.3608 2.062 5.2146 1.655 10.3977 3.3 15.3775 5.515 2.2324.994 6.9109 3.321 9.5714 5.796.6611.615 1.1766 1.22 1.5003 1.796.323.576.4368 1.088.3566 1.544-.0791.449-.3614.927-1.0026 1.409-.6471.486-1.6366.957-3.0678 1.378-4.0543 1.192-8.719.955-13.4156.15-3.5365-.606-7.0485-1.526-10.3031-2.378-1.0698-.28-2.1117-.553-3.1176-.805-10.6428-2.667-21.4291-5.421-30.4144-11.539h-.0001c-8.7376-5.949-15.5115-15.794-15.1086-26.221z" stroke="#f18d75"/><path clip-rule="evenodd" d="m80.8242 233.643.2545-.577c-7.0913-3.154-14.5725-5.163-21.8368-7.615-15.4464-5.213-30.1944-12.516-43.7225-21.649l-.8915-.603-.0827 1.077c-.0477.616-.0702 1.229-.0702 1.839.0113 10.602 6.9183 20.341 15.6206 26.27 9.1951 6.258 20.1455 9.034 30.7737 11.702 6.0833 1.519 13.7137 3.886 20.7874 3.89 2.2919 0 4.5299-.25 6.64-.87 1.6599-.491 2.8473-1.061 3.6622-1.747.8137-.676 1.2488-1.534 1.2426-2.413-.0101-1.154-.6521-2.198-1.5472-3.182-1.3529-1.475-3.3752-2.856-5.3737-4.03-1.9985-1.171-3.9707-2.12-5.2019-2.669l-.2545.577-.2532.577c1.5935.709 4.5123 2.135 6.9947 3.802 1.2412.832 2.3721 1.728 3.167 2.597.8037.87 1.225 1.7 1.2149 2.328-.0075.477-.188.924-.7949 1.449-.6068.514-1.6474 1.044-3.2083 1.5-1.9659.579-4.0861.82-6.2877.82-6.8029.004-14.3581-2.315-20.484-3.854-10.6282-2.661-21.4281-5.425-30.3737-11.521-8.4504-5.748-15.0815-15.202-15.0703-25.226 0-.579.0214-1.159.0665-1.741l-.6244-.048-.3498.523c13.6209 9.196 28.4693 16.549 44.0222 21.797 7.3145 2.468 14.7568 4.471 21.7278 7.574z" fill-rule="evenodd"/></g><path clip-rule="evenodd" d="m376.416 266.633-1.154-1.516 1.149 1.521.005-.005-1.154-1.516 1.149 1.521c.013-.013 2.445-1.859 5.936-3.632 1.743-.886 3.749-1.755 5.815-2.384 2.068-.632 4.19-1.018 6.165-1.016 2.071.004 3.947.4 5.678 1.326.141.077.225.145.331.263.152.176.36.507.536 1.125.174.612.295 1.487.294 2.56.001 1.414-.205 3.159-.627 5.086-.734 3.376-2.117 7.3-3.946 11.207-2.735 5.866-6.491 11.72-10.34 15.918-1.916 2.1-3.854 3.78-5.585 4.862-.863.543-1.671.936-2.382 1.187-.713.253-1.321.362-1.829.377-.17.004-.336.007-.495.007-1.477.001-2.443-.203-3.038-.431-.525-.207-.796-.404-1.067-.671-.232-.236-.466-.555-.713-1.045-.434-.846-.848-2.215-1.227-3.962-.584-2.619-1.109-6.034-2.314-9.754-1.201-3.716-3.151-7.771-6.55-11.492l-6.469 5.965c2.38 2.622 3.716 5.348 4.664 8.229.706 2.157 1.165 4.388 1.616 6.629.341 1.682.676 3.368 1.174 5.059.374 1.266.842 2.543 1.53 3.797.516.938 1.161 1.862 1.969 2.7 1.207 1.261 2.788 2.282 4.562 2.903 1.778.629 3.723.9 5.863.9.244 0 .491-.004.742-.01 2.377-.071 4.616-.773 6.695-1.816 3.639-1.844 6.912-4.733 9.971-8.192 4.568-5.195 8.607-11.734 11.599-18.349 1.493-3.309 2.718-6.636 3.586-9.85.864-3.217 1.383-6.314 1.388-9.254-.005-2.267-.305-4.469-1.184-6.555-.44-1.039-1.037-2.043-1.815-2.938-.775-.895-1.736-1.671-2.813-2.246-3.19-1.714-6.593-2.366-9.804-2.362-3.132.003-6.113.595-8.838 1.434-4.083 1.265-7.608 3.089-10.167 4.603-2.555 1.515-4.136 2.729-4.241 2.809z" fill="#ee7152" fill-rule="evenodd"/><path clip-rule="evenodd" d="m269.622 274.451h-151.809c-1.248 2.83-2.497 5.717-3.775 8.656-19.3046 44.599 11.087 75.484 14.097 75.484h131.151c3.012 0 33.416-30.885 14.098-75.484-1.265-2.939-2.514-5.826-3.762-8.656z" fill="#883419" fill-rule="evenodd"/><path clip-rule="evenodd" d="m269.622 274.452v-1.656h-152.879l-.434.985c-1.252 2.837-2.501 5.725-3.78 8.663v.003c-4.687 10.824-6.514 20.909-6.514 29.969 0 14.49 4.66 26.325 9.615 34.541 2.481 4.111 5.034 7.322 7.151 9.54 1.062 1.11 2.01 1.971 2.823 2.589.408.31.781.561 1.152.76.188.1.375.187.588.26.215.071.454.137.791.141h131.151c.338-.004.576-.07.791-.141.408-.143.743-.334 1.115-.575.686-.45 1.463-1.091 2.355-1.938 3.098-2.959 7.523-8.465 11.225-16.144 3.694-7.674 6.641-17.516 6.641-29.027 0-9.062-1.829-19.148-6.521-29.975l.002.003c-1.266-2.942-2.516-5.832-3.768-8.669l-.434-.985h-1.07v1.656l-1.504.67c1.245 2.824 2.491 5.704 3.756 8.642l.001.004c4.515 10.428 6.245 20.04 6.247 28.654.001 13.76-4.432 25.013-9.142 32.82-2.353 3.9-4.775 6.936-6.712 8.961-.966 1.011-1.814 1.772-2.435 2.243-.308.235-.563.398-.708.475l-.084.041-.026.01.271.738v-.773c-.217.004-.268.039-.271.035l.271.738v-.773h-131.151v.832l.27-.797c-.013-.001-.076-.033-.27-.035v.832l.27-.797-.022-.009c-.162-.063-.756-.442-1.467-1.066-1.269-1.096-3.038-2.946-4.938-5.443-5.724-7.505-12.677-20.818-12.672-38.038.001-8.613 1.729-18.221 6.24-28.648l-.001.003c1.28-2.942 2.527-5.825 3.772-8.649l-1.504-.67v1.654h151.809v-1.654l-1.504.67z" fill="#883419" fill-rule="evenodd"/><path clip-rule="evenodd" d="m278.208 285.69.498-.232c-8.746-18.98-16.932-35.837-23.3-47.959-3.185-6.061-5.913-10.937-8.038-14.313-1.064-1.69-1.975-3.003-2.731-3.914-.378-.457-.717-.814-1.036-1.075-.324-.254-.619-.451-1.034-.464h-101.346c-.415.013-.71.21-1.033.464-.595.488-1.279 1.319-2.117 2.5-2.915 4.119-7.556 12.507-13.285 23.781-5.724 11.27-12.524 25.411-19.704 40.98-5.017 10.873-6.9646 20.97-6.9646 30.034 0 14.491 4.9686 26.33 10.2486 34.544 2.64 4.109 5.358 7.312 7.586 9.501 1.115 1.095 2.105 1.935 2.914 2.512.406.289.765.512 1.082.671.322.156.587.264.903.27h142.055c.319-.006.583-.114.906-.269 1.178-.592 3.057-2.114 5.31-4.522 6.729-7.208 16.544-22.327 16.547-42.709 0-9.065-1.945-19.161-6.963-30.032l-.498.232-.497.233c4.953 10.734 6.861 20.661 6.861 29.567.002 14.232-4.882 25.868-10.077 33.946-2.597 4.038-5.272 7.184-7.441 9.311-1.084 1.063-2.043 1.871-2.789 2.402-.372.265-.693.461-.939.584-.122.06-.226.102-.301.126l-.119.028h-142.055l-.116-.027c-.301-.092-.95-.468-1.751-1.098-2.836-2.215-7.805-7.516-12.031-15.26-4.232-7.749-7.7373-17.945-7.7373-30.01 0-8.905 1.9083-18.833 6.8623-29.569 8.747-18.968 16.927-35.814 23.279-47.908 3.175-6.047 5.896-10.906 7.992-14.239 1.048-1.666 1.942-2.951 2.644-3.798.35-.423.655-.735.887-.925.115-.094.211-.156.275-.187l.067-.028-.001-.003v.002l.001.001-.001-.003v.002h101.346v-.002l-.001.003.001-.001v-.002l-.001.003c.049.007.261.123.518.368.491.457 1.185 1.317 2.012 2.518 2.908 4.216 7.545 12.624 13.204 23.785 5.66 11.164 12.353 25.098 19.411 40.413z" fill="#224737" fill-rule="evenodd"/><path clip-rule="evenodd" d="m223.205 178.166v-.552h-71.658l-50.086-107.052h171.485l-50.237 107.369.496.235v-.552.552l.497.235 50.972-108.9424h-174.9418l51.1188 109.2584h72.703l.148-.316z" fill="#224737" fill-rule="evenodd"/><path clip-rule="evenodd" d="m255.91 135.794h-132.191l20.794 48.719-20.794 48.747h132.191l-20.796-48.747z" fill="#c18b6d" fill-rule="evenodd"/><path clip-rule="evenodd" d="m114.464 266.567h154.904v-1.103h-154.904z" fill="#224737" fill-rule="evenodd"/><path clip-rule="evenodd" d="m282.93 327.59h60.91c37.174-23.231 48.738-84.518 48.738-84.518h-158.386s11.564 61.287 48.738 84.518z" fill="#ee7152" fill-rule="evenodd"/><g clip-path="url(#a)"><path d="m324.788 279.148c0 3.794-2.499 6.988-5.918 8.009-.962.449-1.769.899-2.197 1.801h-.259c-.426-.895-1.224-1.342-2.175-1.789-3.437-1.005-5.954-4.213-5.954-8.021 0-4.613 3.694-8.352 8.251-8.352s8.252 3.739 8.252 8.352zm4.922.26c0-7.359-5.894-13.326-13.164-13.326-7.271 0-13.165 5.967-13.165 13.326 0 6.674 4.846 12.203 11.171 13.177 1.071.234 1.933 1.159 1.691 1.681-.766 1.068-2.871 4.18-2.871 6.161 0 1.77 1.187 3.491 3.164 3.491 1.978 0 3.165-1.721 3.165-3.491 0-1.953-2.05-5.007-2.841-6.116-.307-.516.585-1.504 1.705-1.729.007-.002.012-.004.019-.004 6.303-.995 11.126-6.512 11.126-13.17z" fill="#fff"/></g><path clip-rule="evenodd" d="m282.93 327.59-35.939 35.41h131.722l-34.873-35.41z" fill="#ee7152" fill-rule="evenodd"/><path clip-rule="evenodd" d="m282.905 328.142h60.96v-1.103h-60.96z" fill="#224737" fill-rule="evenodd"/><path clip-rule="evenodd" d="m321.56 61.7916c11.427 0 20.688-9.3063 20.688-20.7965 0-11.4919-9.261-20.8182-20.688-20.8182-11.424 0-20.686 9.3263-20.686 20.8182 0 11.4902 9.262 20.7965 20.686 20.7965z" fill="#f18d75" fill-rule="evenodd"/><path clip-rule="evenodd" d="m314.94 97.7138c4.318 0 7.817-3.5171 7.817-7.8601 0-4.3431-3.499-7.8677-7.817-7.8677s-7.819 3.5246-7.819 7.8677c0 4.343 3.501 7.8601 7.819 7.8601z" fill="#f18d75" fill-rule="evenodd"/><path clip-rule="evenodd" d="m314.94 97.7138v.1942c4.424 0 8.01-3.6041 8.01-8.0544 0-4.4502-3.586-8.0619-8.01-8.0619-4.425 0-8.012 3.6117-8.012 8.0619 0 4.4503 3.587 8.0544 8.012 8.0544v-.3884c-2.107-.0013-4.012-.8575-5.393-2.2447-1.379-1.3884-2.233-3.3027-2.233-5.4213 0-2.1185.854-4.0353 2.233-5.425 1.381-1.3884 3.286-2.2472 5.393-2.2484 2.106.0012 4.011.86 5.391 2.2484 1.38 1.3897 2.233 3.3065 2.233 5.425 0 2.1186-.853 4.0329-2.233 5.4213-1.38 1.3872-3.285 2.2434-5.391 2.2447z" fill="#f6b8a8" fill-rule="evenodd"/><path clip-rule="evenodd" d="m365.636 36.38c4.319 0 7.818-3.5171 7.818-7.8601 0-4.3431-3.499-7.8677-7.818-7.8677-4.317 0-7.818 3.5246-7.818 7.8677 0 4.343 3.501 7.8601 7.818 7.8601z" fill="#f18d75" fill-rule="evenodd"/><path clip-rule="evenodd" d="m365.636 36.3799v.1942c4.426 0 8.011-3.604 8.011-8.0543s-3.585-8.0619-8.011-8.0619c-4.425 0-8.011 3.6116-8.012 8.0619.001 4.4503 3.588 8.0543 8.012 8.0543v-.3896c-2.105 0-4.011-.8563-5.391-2.2447-1.381-1.3872-2.233-3.3014-2.233-5.42s.852-4.0354 2.233-5.4251c1.38-1.3884 3.286-2.2484 5.391-2.2484 2.106 0 4.012.86 5.392 2.2484 1.381 1.3897 2.233 3.3065 2.233 5.4251s-.852 4.0328-2.233 5.42c-1.38 1.3884-3.286 2.2447-5.392 2.2447z" fill="#f18d75" fill-rule="evenodd"/></svg>