<svg fill="none" height="363" viewBox="0 0 440 363" width="440" xmlns="http://www.w3.org/2000/svg" xmlns:xlink="http://www.w3.org/1999/xlink"><clipPath id="a"><path d="m0 0h440v363h-440z"/></clipPath><g clip-path="url(#a)"><g clip-rule="evenodd" fill-rule="evenodd"><path d="m135.668 268.7c-5.686-18.06-11.44-36.274-20.785-52.741-2.276-4.011-4.926-8.068-8.953-10.316s-9.784-2.033-12.5744 1.638c-5.4132-7.013-17.5084-5.678-23.0791 1.212-5.5694 6.89-5.4221 17.067-1.9484 25.217 3.4738 8.151 9.7303 14.742 15.8586 21.141 3.7595 27.613 22.3963 52.746 47.7273 64.362-.681 6.552-1.319 13.422 1.2 19.507 2.52 6.085 9.325 10.94 15.597 8.931 14.307-4.582 5.57-22.046 2.24-30.838-5.936-15.672-10.251-32.129-15.283-48.113z" fill="#bae0cb"/><path d="m119.085 296.947c-4.289-3.938-9.221-7.49-14.928-8.639-5.7096-1.149-12.3128.625-15.5122 5.491-3.0038-7.236-6.0559-14.556-10.754-20.825-4.6982-6.269-11.2951-11.478-19.0047-12.874-7.7082-1.397-16.4783 1.742-20.2505 8.608-3.7723 6.866-.7951 17.018 6.6248 19.53.0407-2.344-3.842-2.809-5.2125-.907-1.3692 1.904-.8459 4.544-.08 6.76 5.4983 15.91 21.3619 27.662 38.1845 28.285-.0165 0 6.7265 11.538 7.7121 12.617 3.663 4.016 8.1706 7.298 13.1126 9.563 5.0459 2.313 10.0589 1.983 15.0929 3.484 5.761 1.718 8.935 5.416 15.623 3.622 28.521-7.646.5-44.52-10.608-54.715z" fill="#bae0cb"/><path d="m271.023 248.865c6.997-6.032 15.372-11.722 25.669-12.371s22.386 5.902 22.773 14.676c1.038-13.021 2.124-26.238 7.392-38.243 5.27-12.006 15.368-22.855 29.784-26.943 14.417-4.086 33.272.253 41.749 11.816 8.009 10.923 5.132 24.569-.364 35.712-5.494 11.141-13.393 21.637-14.88 33.87-2.03 16.686 8.238 33.96 6.127 50.634-2.151 16.991-17.251 30.579-35.399 37.403-25.919 9.748-108.48 13.612-131.564-10.404-26.443-27.51 27.828-78.145 48.713-96.15z" fill="#76c198"/><path d="m291.232 355.763c23.897-37.549 42.71-78.128 56.049-120.923 2.773-8.897-5.67-15.524-10.892-8.582-28.929 38.55-55.747 78.486-80.375 119.684l7.235 3.397z" fill="#f18d75"/><path d="m321.694 362.757c22.904-36.618 40.998-76.057 53.952-117.612 2.766-8.88-5.67-15.526-10.891-8.582-28.505 37.985-54.959 77.338-79.28 117.878z" fill="#f18d75"/><path d="m114.499 294.84c1.112 8.45-2.054 17.191-8.462 23.327-6.5229 6.253-16.3345 10.128-20.0292 18.049-4.0237 8.602 1.1494 18.366 9.301 24.906h249.6992c-10.867-18.478-7.612-41.699-9.418-62.353-1.427-16.328-4.86-32.32-10.114-47.713-.79-7.242-4.402-14.565-8.39-21.135-.203-.334-.41-.669-.619-1.003-.18-.38-.351-.762-.534-1.141-.343-.71-.774-1.252-1.259-1.648-3.878-5.784-8.647-11.198-15.436-13.914-7.16-2.876-15.288-2.223-23.056-2.759-12.287-.841-24.354-4.871-34.36-11.472-20.153-13.286-31.248-36.001-52.814-47.314-16.732-8.779-38.521-8.992-55.04-.54-5.748 2.943-11.075 7.126-13.158 12.764-4.006 10.913 5.16 23.548.563 34.269-5.504 12.823-26.3183 14.208-34.9575 25.513-8.3319 10.9-2.05 26.152 6.5487 37.217 8.6088 11.077 19.7828 21.667 21.5348 34.947z" fill="#faeac4"/><path d="m124.44 116.62c-3.107 5.894-10.403 8.155-16.297 5.048-5.894-3.105-8.1541-10.402-5.048-16.296 3.106-5.8948 10.402-8.1542 16.296-5.049 5.895 3.107 8.155 10.403 5.049 16.297z" fill="#f18d75"/><path d="m112.545 133.05c-1.308 2.483-4.38 3.434-6.861 2.127-2.482-1.308-3.434-4.38-2.126-6.863 1.309-2.481 4.381-3.433 6.862-2.125 2.482 1.308 3.433 4.38 2.125 6.861z" fill="#f18d75"/><path d="m312.632 223.245c-3.501-4.649-7.749-8.772-13.393-11.03-7.161-2.876-15.289-2.223-23.057-2.759-12.287-.841-24.354-4.871-34.36-11.472-2.353-1.552-4.581-3.231-6.719-5.005h77.529z" fill="#f2f3f2"/><path d="m312.632 339.699h-153.329v-146.72h75.8c2.138 1.774 4.366 3.453 6.719 5.005 10.006 6.601 22.073 10.631 34.36 11.472 7.768.536 15.896-.117 23.057 2.759 5.644 2.258 9.892 6.381 13.393 11.03z" fill="#fcf2dc"/><path d="m94.0363 112.224c0 2.451-1.9877 4.439-4.439 4.439-2.4526 0-4.4403-1.988-4.4403-4.439s1.9877-4.439 4.4403-4.439c2.4513 0 4.439 1.988 4.439 4.439z" fill="#f6b8a8"/><path d="m145.884 325.814c-5.41-8.931-14.386-14.037-21.939-20.344l-.406.488.449-.45c-4.149-4.162-6.48-8.167-6.489-13.621 0-1.133.103-2.33.316-3.607l-.627-.104.62.137c2.174-9.808 5.343-17.831 5.348-27.333 0-1.502-.08-3.04-.256-4.627l-.004-.034-.008-.033c-1.303-5.884-4.596-9.825-8.289-13.191-3.696-3.371-7.795-6.216-10.894-9.94l-.488.406.528-.351c-2.089-3.14-2.882-6.232-2.886-9.361-.001-3.957 1.299-7.98 2.966-12.05 1.664-4.069 3.69-8.177 5.076-12.33l.005-.016.005-.017c1.068-3.916 1.545-7.833 1.545-11.71-.001-10.169-3.276-20.069-7.792-29.143l-1.136.567c4.463 8.964 7.66 18.684 7.658 28.576 0 3.773-.465 7.575-1.501 11.375l.612.167-.602-.2c-1.345 4.04-3.357 8.127-5.046 12.25-1.685 4.124-3.0571 8.294-3.0596 12.531-.0026 3.347.8726 6.729 3.0986 10.064l.019.029.022.026c3.253 3.897 7.409 6.767 11.014 10.064 3.613 3.302 6.67 6.982 7.906 12.528l.619-.137-.631.07c.172 1.54.249 3.031.249 4.487.005 9.201-3.105 17.129-5.318 27.059l-.004.016-.002.017c-.224 1.339-.333 2.606-.333 3.815-.008 5.852 2.592 10.265 6.861 14.52l.02.02.022.018c7.688 6.394 16.494 11.449 21.666 20.026z" fill="#d6ece0"/><path d="m101.516 159.125c5.883 13.133 11.63 25.598 22.974 33.722 5.382 3.846 11.4 6.495 15.999 10.031 2.302 1.765 4.245 3.742 5.617 6.183 1.37 2.442 2.184 5.361 2.185 9.074 0 .354-.007.715-.022 1.083-.216 5.393-1.686 10.904-1.691 16.52 0 1.446.099 2.899.345 4.355.987 5.83 4.53 10.295 8.9 13.892 4.25 3.495 9.299 6.4 13.503 9.886 4.209 3.493 7.55 7.509 8.564 13.269.246 1.403.353 2.811.353 4.222.006 6.651-2.393 13.396-3.495 20.112-.325 1.988-.47 3.922-.469 5.822 0 6.638 1.757 12.818 3.721 19.307l1.216-.368c-1.964-6.479-3.668-12.531-3.667-18.939 0-1.835.139-3.701.451-5.616 1.066-6.563 3.506-13.367 3.513-20.318 0-1.475-.112-2.957-.372-4.442-1.078-6.155-4.689-10.455-9.005-14.027-4.321-3.576-9.372-6.482-13.505-9.889-4.244-3.496-7.537-7.699-8.455-13.123-.233-1.375-.328-2.754-.328-4.143-.005-5.393 1.454-10.887 1.689-16.468.017-.385.024-.763.024-1.135.002-3.898-.866-7.061-2.348-9.696-2.225-3.957-5.785-6.696-9.735-9.158-3.955-2.46-8.32-4.655-12.249-7.467-10.994-7.859-16.677-20.066-22.554-33.207z" fill="#d6ece0"/><path d="m63.9983 225.372c7.3222 10.878 19.3654 18.249 31.8467 19.524 6.981.707 14.802-.116 20.263 4.67 7.152 6.224 6.132 18.43 12.557 25.476 8.497 9.327 24.702 4.464 33.74 13.227 7.444 7.197 6.146 19.611 10.843 28.923 4.902 9.737 16.374 16.168 17.541 26.958.638 5.867-1.448 13.326 3.371 16.601 0 0-9.231-3.753-14.889-4.288-10.362-1.004-16.766-12.834-26.203-17.76-9.027-4.713-20.899-3.118-27.946-10.707-8.587-9.254-4.25-26.254-13.354-34.938-6.9-6.555-18.5724-5.24-24.6982-12.561-4.693-5.624-4.058-13.79-4.8784-21.061-1.4899-12.987-8.7994-25.389-19.3679-32.803" fill="#f18d75"/><path d="m231.447 142.463h6.491v-106.5762h-6.491z" fill="#999"/><path d="m203.147 174.292h65.641v-21.64h-65.641z" fill="#b3b3b3"/><path d="m159.804 339.399h154.73l16.428 23.126h-189.989z" fill="#c18b6d"/><path d="m311.442 195.131h-153.329l-16.279-23.128h188.267z" fill="#c18b6d"/></g><path d="m313.253 192.356v147.343.621h-154.571v-147.964z" fill="#ccc"/><path d="m295.528 282.326v44.723h-118.39v-44.723z" fill="#b3b3b3" stroke="#808080"/><path d="m236.333 315.618c-6.037 0-10.931-4.894-10.931-10.931s4.894-10.931 10.931-10.931 10.931 4.894 10.931 10.931-4.894 10.931-10.931 10.931z" fill="#999" stroke="#666"/><path clip-rule="evenodd" d="m158.896 84.7758c-.003.2718-.021.5397-.021.8115 0 30.2017 17.377 56.3307 42.668 68.9767h68.849c25.292-12.646 42.668-38.775 42.668-68.9767 0-.2718-.018-.5397-.02-.8115z" fill="#ccc" fill-rule="evenodd"/><path clip-rule="evenodd" d="m234.692 41.7167h-64.984l-75.3782 14.0651h-20.4487v10.1609h21.3886l75.3783-14.0652h64.044z" fill="#999" fill-rule="evenodd"/><path clip-rule="evenodd" d="m252.635 17.9441c0 9.9094-8.034 17.9428-17.943 17.9428-9.91 0-17.943-8.0334-17.943-17.9428 0-9.91067 8.033-17.9441 17.943-17.9441 9.909 0 17.943 8.03343 17.943 17.9441z" fill="#c18b6d" fill-rule="evenodd"/><path clip-rule="evenodd" d="m89.5973 60.8622c0 9.9107-8.0334 17.9441-17.944 17.9441-9.9094 0-17.9429-8.0334-17.9429-17.9441 0-9.9093 8.0335-17.9428 17.9429-17.9428 9.9106 0 17.944 8.0335 17.944 17.9428z" fill="#c18b6d" fill-rule="evenodd"/></g></svg>